<svg id="Layer_1" data-name="Layer 1" xmlns="http://www.w3.org/2000/svg" xmlns:xlink="http://www.w3.org/1999/xlink" viewBox="0 0 566.93 209.91"><defs><style>.cls-1{fill:url(#linear-gradient);}</style><linearGradient id="linear-gradient" x1="30.03" y1="106.61" x2="194.19" y2="106.61" gradientUnits="userSpaceOnUse"><stop offset="0" stop-color="#f0047f"/><stop offset="0.1" stop-color="#e6067b"/><stop offset="0.48" stop-color="#c50e6d"/><stop offset="0.79" stop-color="#b01265"/><stop offset="1" stop-color="#a91462"/></linearGradient></defs><title>Logotipi prijedlozi</title><path class="cls-1" d="M52.22,180.3a24.4,24.4,0,0,1-12.94-4c-.43-.22-4.34-2.58-7.28-8.71-4.12-8.56-1.75-21.9,7.25-40.78L69.61,59.38C69.8,59,74.3,49.17,79.94,42.09,85,35.77,92.7,32.29,100,33c7.58.74,14.15,5.75,18.5,14.11l9,17.89c12.18-4.24,21.5-.32,22.21,0,13,5.1,20,17.89,26,30.54,7.94,16.7,17.51,37.44,18,41.39a19.18,19.18,0,0,1-11,21.77c-8.23,3.72-17.53,1.63-22.66-5.07a141.49,141.49,0,0,1-8.48-12.84L122.25,82.7c-5.6,4.67-11.66,12.33-17.47,24.71l-23.7,48.33c-.66,1.62-8.29,19-22.33,23.53A21.48,21.48,0,0,1,52.22,180.3Zm29-115.66-30.4,67.56c-10.3,21.6-7.91,28.72-7.33,29.93a8.8,8.8,0,0,0,2.49,3.4c4.28,2.67,7.15,2.21,8.94,1.65,7.2-2.28,13-12.82,14.65-16.69l23.81-48.57c7.32-15.61,15.36-25.16,23-30.89l-9.16-18.13c-1.59-3.06-4.38-6.87-8.42-7.26-3.08-.3-6.56,1.42-8.9,4.36C85.29,55.76,81.36,64.23,81.17,64.64Zm81.6,70.07s3.76,6.41,7.41,11.18c1.76,2.3,5,2.25,7.34,1.21,1.83-.82,4.75-3,3.73-8.12,0,0-1.65-5.73-17-38-6.16-13-11.31-21.1-19.39-24.27-.47-.19-5-1.9-11.47-.1l29.37,58.12Z"/><path d="M227,131,242.11,86.2a14,14,0,0,1,3.76-6q2.4-2.11,8.21-2.11,5.24,0,7.75,1.94a13,13,0,0,1,4,6.15L281.32,131h-9.46L267,116.52H238.46L233.79,131Zm13-18.46h25.41l-7.52-22.91a11.81,11.81,0,0,0-1.48-3q-.91-1.31-3.65-1.31c-2.05,0-3.4.45-4,1.36a9.7,9.7,0,0,0-1.42,3Z"/><path d="M315.39,131.67a57.42,57.42,0,0,1-11.11-.91,13.06,13.06,0,0,1-11.05-10.43,46.72,46.72,0,0,1-1.2-11.68,37.41,37.41,0,0,1,2-13.45,14,14,0,0,1,7.3-7.75q5.24-2.5,14.7-2.51,7.29,0,11.68,1.94a12.57,12.57,0,0,1,6.39,5.93,23.3,23.3,0,0,1,2,10.37v6.5H304a4,4,0,0,1,.69-2.34,2.87,2.87,0,0,1,2.51-1H329l-.12-3.3q-.12-7.07-3-10.26t-10.09-3.19q-6,0-9.45,1.82a10,10,0,0,0-4.79,5.93,36.59,36.59,0,0,0-1.36,11.17q0,7.53,1.54,11.45a8.93,8.93,0,0,0,5.18,5.36,27.9,27.9,0,0,0,9.91,1.43c1.45,0,3.1-.06,5-.17s3.75-.25,5.64-.4,3.59-.36,5.07-.63a12.81,12.81,0,0,0,3.14-.85v1.36a4.12,4.12,0,0,1-.63,2.17,4.74,4.74,0,0,1-2.56,1.71,23.31,23.31,0,0,1-6.78,1.37Q321.32,131.67,315.39,131.67Z"/><path d="M361.66,131.33a15.1,15.1,0,0,1-6-1,6.16,6.16,0,0,1-3.19-3.36,16.79,16.79,0,0,1-1-6.5V90h-4.33V85.52h4.33V77.31a8.52,8.52,0,0,1,.29-2.56,1.56,1.56,0,0,1,1-1.08,6.45,6.45,0,0,1,1.94-.23h4.9c0,.15,0,.47-.06,1s-.06,1.19-.06,2.1v9H370V90h-10.6v29.63q0,4.44.91,6.27t4.1,1.82a15.61,15.61,0,0,0,2.62-.23A10.51,10.51,0,0,0,369,127v3.53l-2.62.45A27.41,27.41,0,0,1,361.66,131.33Z"/><path d="M385.93,131q-2.28,0-2.79-.68a5.26,5.26,0,0,1-.51-2.85V73.55h8V87.11a13,13,0,0,1,3.7-.85q2.45-.28,5.13-.51c1.79-.15,3.44-.23,5-.23a37,37,0,0,1,10.94,1.31,12.13,12.13,0,0,1,6,3.76,13.24,13.24,0,0,1,2.56,6,47.91,47.91,0,0,1,.62,8.15v21.76a11.06,11.06,0,0,1-.29,2.91,1.74,1.74,0,0,1-1.08,1.25,7.6,7.6,0,0,1-2.4.29h-4V103q0-5.47-1.54-8.32a7.92,7.92,0,0,0-4.62-3.88,24,24,0,0,0-7.52-1c-1.14,0-2.53.06-4.16.17s-3.23.28-4.79.51a14.11,14.11,0,0,0-3.59.91V131Z"/><path d="M462.62,131.67a57.4,57.4,0,0,1-11.11-.91,13,13,0,0,1-11.05-10.43,46.69,46.69,0,0,1-1.2-11.68,37.4,37.4,0,0,1,2.05-13.45,14,14,0,0,1,7.3-7.75q5.24-2.5,14.7-2.51,7.29,0,11.68,1.94a12.55,12.55,0,0,1,6.38,5.93,23.3,23.3,0,0,1,2,10.37v6.5H451.23a3.92,3.92,0,0,1,.69-2.34,2.87,2.87,0,0,1,2.51-1h21.76l-.11-3.3q-.12-7.07-3-10.26T463,89.62q-6,0-9.46,1.82a10,10,0,0,0-4.79,5.93,36.57,36.57,0,0,0-1.37,11.17q0,7.53,1.54,11.45a8.92,8.92,0,0,0,5.19,5.36,27.86,27.86,0,0,0,9.91,1.43q2.16,0,5-.17t5.64-.4c1.9-.15,3.59-.36,5.07-.63a12.75,12.75,0,0,0,3.14-.85v1.36a4.12,4.12,0,0,1-.62,2.17,4.76,4.76,0,0,1-2.56,1.71,23.35,23.35,0,0,1-6.78,1.37Q468.56,131.67,462.62,131.67Z"/><path d="M505.48,131h-5a3,3,0,0,1-2.22-.74,4,4,0,0,1-.74-2.79V87.8q2.5-.8,6.9-1.71a54.46,54.46,0,0,1,10.88-.91A43.84,43.84,0,0,1,525,86a12,12,0,0,1,5.24,2.34A6.92,6.92,0,0,1,532.43,92a20.26,20.26,0,0,1,.51,4.73h-7.64l-.12-1.6a4.74,4.74,0,0,0-1.71-3.82,7.84,7.84,0,0,0-3.76-1.48,33.44,33.44,0,0,0-4.33-.29,27,27,0,0,0-5.87.57,13.48,13.48,0,0,0-4,1.48Z"/></svg>