<svg id="Layer_1" data-name="Layer 1" xmlns="http://www.w3.org/2000/svg" xmlns:xlink="http://www.w3.org/1999/xlink" viewBox="0 0 363.4 284.4"><defs><linearGradient id="linear-gradient" x1="45.38" y1="141.62" x2="317.56" y2="141.62" gradientUnits="userSpaceOnUse"><stop offset="0" stop-color="#f0047f"/><stop offset="0.1" stop-color="#e6067b"/><stop offset="0.48" stop-color="#c50e6d"/><stop offset="0.79" stop-color="#b01265"/><stop offset="1" stop-color="#a91462"/></linearGradient></defs><title>Logotipi prijedlozi</title><path style="fill:url(#linear-gradient)" d="M82.17,263.81a40.45,40.45,0,0,1-21.46-6.56c-.71-.37-7.19-4.28-12.07-14.43-6.83-14.19-2.91-36.31,12-67.61L111,63.32c.31-.68,7.77-16.93,17.13-28.67,8.34-10.48,21.15-16.25,33.26-15.07C174,20.79,184.85,29.1,192.06,43l15,29.65c20.19-7,35.66-.53,36.83,0C265.4,81,277,102.25,287,123.23c13.16,27.69,29,62.07,29.92,68.62,3,15.27-4.09,29.7-18.29,36.1-13.64,6.17-29.07,2.7-37.57-8.4A234.59,234.59,0,0,1,247,198.27L198.29,102c-9.28,7.74-19.33,20.44-29,41L130,223.09c-1.1,2.69-13.74,31.58-37,39A35.61,35.61,0,0,1,82.17,263.81ZM130.17,72l-50.41,112c-17.08,35.81-13.12,47.62-12.15,49.62,2,4.13,4,5.57,4.13,5.63,7.1,4.42,11.85,3.67,14.83,2.74,11.95-3.78,21.59-21.26,24.3-27.67l39.47-80.53c12.14-25.87,25.47-41.71,38.17-51.21L173.32,52.58c-2.64-5.08-7.26-11.39-14-12-5.11-.5-10.87,2.35-14.76,7.23C137,57.32,130.48,71.36,130.17,72ZM265.46,188.22s6.24,10.63,12.28,18.54c2.92,3.82,8.35,3.73,12.17,2,3-1.37,7.88-4.94,6.19-13.46,0-.05-2.73-9.51-28.17-63-10.22-21.5-18.76-35-32.15-40.24-.77-.31-8.25-3.16-19-.17l48.69,96.36Z"/></svg>